<svg width="26" height="20" viewBox="0 0 26 20" xmlns="http://www.w3.org/2000/svg">
  <path d="M13 13L17.8 8.2L13 13Z" fill="#4B5563"/>
  <path d="M2.608 19C1.55466 17.1758 1 15.1065 1 13C1 10.8937 1.55434 8.82434 2.60754 7C3.66074 5.17584 5.17561 3.66096 6.99987 2.60772C8.82413 1.55449 10.8935 1 13 1C15.1065 1 17.1759 1.55449 19.0001 2.60772C20.8244 3.66096 22.3393 5.17584 23.3925 7C24.4457 8.82434 25 10.8937 25 13C24.9999 15.1065 24.4453 17.1758 23.392 19" fill="#4B5563"/>
  <path d="M13 13L17.8 8.2M2.608 19C1.55466 17.1758 1 15.1065 1 13C1 10.8937 1.55434 8.82434 2.60754 7C3.66074 5.17584 5.17561 3.66096 6.99987 2.60772C8.82413 1.55449 10.8935 1 13 1C15.1065 1 17.1759 1.55449 19.0001 2.60772C20.8244 3.66096 22.3393 5.17584 23.3925 7C24.4457 8.82434 25 10.8937 25 13C24.9999 15.1065 24.4453 17.1758 23.392 19" stroke="#F9FAFB" stroke-width="2" stroke-linecap="round" stroke-linejoin="round"/>
</svg>
